<svg xmlns="http://www.w3.org/2000/svg" xmlns:xlink="http://www.w3.org/1999/xlink" version="1.1" x="0px" y="0px" viewBox="0 0 100 125" enable-background="new 0 0 100 100" xml:space="preserve"><path d="M82.99,95.441c-3.071-4.69-6.158-9.368-9.239-14.052c-1.073-1.625-2.155-3.244-3.222-4.872  c-0.548-0.846-0.478-1.036,0.465-1.426c2.074-0.857,4.017-1.927,5.691-3.449c1.687-1.529,2.614-3.488,3.041-5.661  c0.258-1.31,0.314-2.677,0.314-4.021c0.021-16.141-0.018-32.283,0.042-48.424c0.011-3.009-1.054-5.447-3.013-7.601  c-1.999-2.192-4.336-3.854-7.245-4.62h-0.003c-0.233-0.065-0.463-0.14-0.706-0.14h-35.82c-2.401,0-4.782,0.543-6.914,1.649  c-0.012,0.005-0.024,0.013-0.037,0.018c-2.019,1.054-3.548,2.667-4.841,4.528c-1.279,1.848-1.732,3.858-1.727,6.098  c0.042,16.593,0.085,33.187-0.025,49.779c-0.026,3.702,1.448,6.49,3.921,8.973c1.287,1.293,2.764,2.258,4.531,2.777  c0.528,0.156,1.01,0.469,1.564,0.732c-1.512,2.289-2.938,4.457-4.372,6.617c-2.771,4.176-5.545,8.349-8.319,12.521  c-0.705,1.06-1.415,2.113-2.109,3.18c-0.165,0.254-0.273,0.544-0.406,0.816h8.895c0.844-1.271,1.671-2.553,2.536-3.807  c0.027-0.04,0.055-0.077,0.082-0.118h47.503c0.382,0.554,0.764,1.106,1.144,1.658c0.513,0.742,0.986,1.51,1.48,2.267h8.895  C84.397,97.722,83.726,96.563,82.99,95.441 M66.661,68.625c-3.344-0.046-5.907-2.742-5.877-6.179  c0.026-3.274,2.638-5.782,5.988-5.748c3.351,0.037,5.79,2.53,5.731,5.862C72.44,66.12,69.981,68.673,66.661,68.625 M38.026,8.317  c0-1.485,1.204-2.689,2.689-2.689h18.23c1.485,0,2.688,1.204,2.688,2.689v0.053c0,1.485-1.202,2.689-2.688,2.689h-18.23  c-1.485,0-2.689-1.204-2.689-2.689V8.317z M26.714,14.647h46.001v5.831c0,0.028,0.003,0.06,0.003,0.09  c0.004,0.838-0.003,1.678-0.003,2.52v3.21c-0.004,1.55-0.004,3.098,0.031,4.646c0.006,0.237-0.014,0.458-0.031,0.679v5.979H26.714  V14.647z M26.942,62.388c0.081-3.235,2.693-5.753,5.903-5.686c3.5,0.074,5.915,2.492,5.837,5.845  c-0.082,3.532-2.678,6.138-6.055,6.076C29.333,68.562,26.856,65.846,26.942,62.388 M30.435,88.626  c1.223-1.767,2.448-3.529,3.663-5.302c0.299-0.438,0.62-0.6,1.145-0.598c9.726,0.014,19.453,0.014,29.181-0.002  c0.456,0,0.88,0.225,1.141,0.601c1.214,1.771,2.438,3.534,3.657,5.301H30.435z"/><text x="0" y="115" fill="#000000" font-size="5px" font-weight="bold" font-family="'Helvetica Neue', Helvetica, Arial-Unicode, Arial, Sans-serif">Created by Gem.icons</text><text x="0" y="120" fill="#000000" font-size="5px" font-weight="bold" font-family="'Helvetica Neue', Helvetica, Arial-Unicode, Arial, Sans-serif">from the Noun Project</text></svg>