<svg xmlns="http://www.w3.org/2000/svg" xmlns:xlink="http://www.w3.org/1999/xlink" version="1.1" x="0px" y="0px" viewBox="0 0 100 125" enable-background="new 0 0 100 100" xml:space="preserve"><path d="M24.224,78.949C13.624,78.949,5,70.325,5,59.726c0-10.601,8.624-19.223,19.224-19.223s19.223,8.622,19.223,19.223  C43.446,70.325,34.823,78.949,24.224,78.949z M24.224,43.46c-8.969,0-16.267,7.297-16.267,16.266s7.298,16.267,16.267,16.267  s16.266-7.298,16.266-16.267S33.192,43.46,24.224,43.46z"/><path d="M75.776,78.949c-10.6,0-19.223-8.624-19.223-19.224c0-10.601,8.623-19.223,19.223-19.223S95,49.125,95,59.726  C95,70.325,86.376,78.949,75.776,78.949z M75.776,43.46c-8.969,0-16.266,7.297-16.266,16.266s7.297,16.267,16.266,16.267  s16.267-7.298,16.267-16.267S84.745,43.46,75.776,43.46z"/><path d="M77.641,21.051h-11.83c-0.016,0-0.031,0.004-0.047,0.005c-0.046,0.001-0.092,0.008-0.138,0.014  c-0.054,0.007-0.107,0.014-0.159,0.025c-0.014,0.004-0.026,0.003-0.04,0.007c-0.03,0.008-0.056,0.022-0.085,0.032  c-0.052,0.018-0.104,0.035-0.152,0.058c-0.042,0.02-0.08,0.042-0.119,0.065c-0.043,0.024-0.086,0.05-0.126,0.079  c-0.038,0.028-0.073,0.059-0.109,0.09c-0.035,0.032-0.07,0.063-0.103,0.099c-0.032,0.034-0.062,0.07-0.09,0.108  c-0.029,0.038-0.058,0.075-0.083,0.116c-0.025,0.04-0.046,0.081-0.067,0.124c-0.021,0.042-0.042,0.084-0.059,0.129  c-0.019,0.047-0.032,0.096-0.045,0.146c-0.012,0.042-0.023,0.083-0.031,0.126c-0.01,0.058-0.014,0.115-0.018,0.174  c-0.001,0.027-0.008,0.054-0.008,0.082c0,0.013,0.003,0.023,0.004,0.036c0.001,0.056,0.009,0.112,0.017,0.169  c0.007,0.045,0.012,0.089,0.021,0.133c0.004,0.016,0.004,0.03,0.008,0.046l9.966,37.195c0.178,0.661,0.775,1.097,1.428,1.097  c0.127,0,0.256-0.017,0.384-0.051c0.789-0.212,1.257-1.022,1.046-1.812l-9.469-35.335h9.904c0.816,0,1.479-0.661,1.479-1.479  C79.119,21.713,78.457,21.051,77.641,21.051z"/><path d="M69.859,33.241c0.021-0.046,0.036-0.094,0.052-0.142c0.015-0.044,0.031-0.088,0.042-0.133  c0.011-0.046,0.016-0.094,0.022-0.141c0.006-0.05,0.013-0.1,0.015-0.149c0.001-0.017,0.005-0.031,0.005-0.048  c0-0.033-0.008-0.063-0.01-0.096c-0.003-0.049-0.007-0.096-0.015-0.144c-0.008-0.052-0.021-0.102-0.034-0.151  c-0.012-0.041-0.023-0.082-0.038-0.123c-0.019-0.05-0.041-0.098-0.064-0.146c-0.02-0.038-0.038-0.074-0.061-0.11  c-0.028-0.047-0.061-0.091-0.094-0.134c-0.025-0.032-0.05-0.063-0.077-0.094c-0.041-0.044-0.085-0.084-0.131-0.123  c-0.02-0.017-0.034-0.035-0.054-0.051c-0.01-0.008-0.021-0.012-0.031-0.02c-0.051-0.037-0.104-0.068-0.16-0.1  c-0.03-0.017-0.061-0.034-0.091-0.049c-0.054-0.025-0.11-0.044-0.168-0.062c-0.036-0.012-0.071-0.025-0.107-0.034  c-0.053-0.013-0.106-0.019-0.161-0.025c-0.044-0.006-0.087-0.012-0.13-0.014c-0.019,0-0.035-0.005-0.053-0.005l-27.008,0.001  l-1.121-4.186h3.986c0.816,0,1.479-0.662,1.479-1.479c0-0.817-0.662-1.479-1.479-1.479h-11.83c-0.816,0-1.479,0.662-1.479,1.479  c0,0.816,0.662,1.479,1.479,1.479h4.781l1.458,5.443l-15.83,26.559c-0.016,0.026-0.024,0.055-0.038,0.081  c-0.025,0.05-0.05,0.099-0.07,0.151c-0.016,0.042-0.027,0.084-0.039,0.127c-0.015,0.05-0.028,0.1-0.036,0.151  c-0.009,0.048-0.012,0.097-0.015,0.145c-0.003,0.035-0.011,0.067-0.011,0.103c0,0.015,0.004,0.029,0.005,0.044  c0.001,0.047,0.008,0.093,0.014,0.139c0.007,0.053,0.012,0.104,0.023,0.155c0.009,0.036,0.022,0.071,0.033,0.106  c0.018,0.057,0.035,0.112,0.06,0.166c0.014,0.03,0.032,0.059,0.048,0.089c0.029,0.054,0.059,0.107,0.094,0.157  c0.02,0.027,0.043,0.051,0.063,0.077c0.04,0.049,0.08,0.097,0.126,0.14c0.022,0.021,0.048,0.039,0.072,0.06  c0.052,0.043,0.104,0.084,0.162,0.12c0.008,0.005,0.015,0.012,0.022,0.017c0.013,0.008,0.026,0.01,0.039,0.017  c0.088,0.05,0.181,0.089,0.279,0.12c0.029,0.009,0.057,0.02,0.086,0.026c0.111,0.027,0.226,0.045,0.345,0.046  c0.002,0,0.004,0.001,0.006,0.001h0.001h0.001h23.41c0.109,0,0.215-0.014,0.316-0.036c0.023-0.005,0.045-0.015,0.067-0.021  c0.08-0.021,0.157-0.047,0.231-0.081c0.029-0.014,0.057-0.03,0.085-0.046c0.064-0.035,0.127-0.073,0.186-0.117  c0.028-0.021,0.056-0.045,0.084-0.069c0.056-0.049,0.106-0.102,0.154-0.158c0.016-0.018,0.033-0.03,0.048-0.049l20.882-27.096  c0.01-0.013,0.016-0.027,0.025-0.04c0.03-0.042,0.056-0.087,0.082-0.133C69.817,33.32,69.841,33.281,69.859,33.241z M26.826,58.247  l13.025-21.853l5.855,21.853H26.826z M48.289,56.453l-5.987-22.345l23.208-0.001L48.289,56.453z"/><circle cx="75.777" cy="59.726" r="4.436"/><circle cx="24.225" cy="59.726" r="4.436"/><text x="0" y="115" fill="#000000" font-size="5px" font-weight="bold" font-family="'Helvetica Neue', Helvetica, Arial-Unicode, Arial, Sans-serif">Created by David Courey</text><text x="0" y="120" fill="#000000" font-size="5px" font-weight="bold" font-family="'Helvetica Neue', Helvetica, Arial-Unicode, Arial, Sans-serif">from the Noun Project</text></svg>